<?xml version="1.0" encoding="utf-8"?>
<!-- Generator: Adobe Illustrator 25.2.1, SVG Export Plug-In . SVG Version: 6.00 Build 0)  -->
<svg version="1.1" id="bee-left-wide" xmlns="http://www.w3.org/2000/svg" xmlns:xlink="http://www.w3.org/1999/xlink" x="0px" y="0px"
	 viewBox="0 50 150 800" style="enable-background:new 0 0 150 800;" xml:space="preserve">
<style type="text/css">
	.st0{fill:none;stroke:#CCCCCC;stroke-linecap:round;stroke-miterlimit:10;stroke-dasharray:3;}
	.st1{fill:#FFFFFF;}
</style>
<path id="path-left-wide" class="st0" d="M-19.6,47c28.2,20.3,64,29.5,98.5,25.5c0.7-0.1,1.4-0.2,2.1-0.4c4.8-1.2,3.4-8.5-1.5-7.7
	c-4.6,0.8-9.1,3.5-12,7.2c-5.6,7-7.1,16.5-8.2,25.2c-0.4,2.8-0.3,5.7,0.5,8.4c5.6,19.3,34.8,9.3,49.2,21.3
	c9.5,7.9,9.4,22.5,8.4,34.6c-1,12.1-2.3,24.3-4.1,36.3c-1.3,8.4-3,17-7.8,24.1c-6.2,9.1-16.5,14.2-25.7,20.3
	c-12,8-22.4,18.2-30.7,30c-5.6,8.1-10.4,17.2-10.9,27c-0.5,9.8,3.9,20.4,12.7,24.8c6.9,3.5,16.3,1.6,21.2-3.9c3.2-3.6-2-8.8-5.5-5.5
	c0,0,0,0-0.1,0.1c-2.3,2.3-3.1,5.6-3.6,8.8c-1.7,10.8-0.8,23.8,8.2,30.1c5.1,3.6,11.7,4.2,17.7,5.9c17.6,5,31.3,21.4,33.1,39.6
	s-8.4,37-24.7,45.3c-8.3,4.2-20.6,4.7-24.4-4.2c-2.7-6.3,0.7-13.5,7.2-16c11.3-4.4,21.7,4.5,25.1,14.8c7.3,22.6-12.3,44.6-31.4,58.7
	s-41.8,29.5-43.9,53.2c-1.2,13.9,5.4,27.4,14.2,38.2c8.9,10.7,20,19.3,30.1,29c15.9,15.2,29.2,33.2,39,52.9
	c2.8,5.6,5.4,11.5,5.7,17.7c0.4,8.1-3,15.8-7.2,22.7c-24.8,40.9-82.4,58-125.6,37.3"/>
<g id="bee1_1_">
	<path id="bee-outline_2_" d="M10.5,4.7c0.3-1.1,0.3-2,0.3-2.7C10.9,2,11,2,11,2c0.9,0,1.5-0.4,1.8-1.1c0.6,0.2,1.1,0.7,1.3,1
		c0,0,0.1,0.1,0.1,0.1c0.1,0.2,0.4,0.2,0.5,0c0.1-0.2,0.1-0.4,0-0.6c0,0,0,0-0.1-0.1c-0.3-0.3-0.9-1-1.7-1.2c0,0,0,0,0-0.1
		s0,0,0-0.1c0.8-0.2,1.5-0.9,1.7-1.2c0,0,0-0.1,0.1-0.1c0.1-0.2,0.1-0.4,0-0.6c-0.1-0.2-0.4-0.1-0.5,0c0,0,0,0.1-0.1,0.1
		c-0.2,0.3-0.7,0.8-1.3,1C12.6-1.6,12-2,11-2c-0.1,0-0.2,0-0.2,0c0.1-0.7,0-1.6-0.3-2.7c-0.4-1.8-1.7-2.9-3.3-2.7
		c-0.7,0.1-1.3,0.4-1.6,1c-0.1,0.2-0.2,0.6-0.2,1c0,0.4,0.1,0.9,0.3,1.5C5.8-3.6,6-3.3,6.2-3C4.7-3,3.6-2.4,2.9-1.7c0,0,0,0,0,0
		c0,0,0,0-0.1,0.1C2.8-1.6,2.7-1.5,2.7-1.4c0,0-0.1,0-0.1,0L0.2-0.4C0.1-0.3,0-0.2,0,0s0.1,0.3,0.2,0.4l2.3,1.1c0,0,0.1,0,0.1,0
		c0.1,0.1,0.1,0.1,0.2,0.2c0,0,0,0,0.1,0.1c0,0,0,0,0,0C3.6,2.4,4.7,3,6.2,3C6,3.3,5.8,3.6,5.7,3.9C5.5,4.5,5.4,5,5.4,5.4
		c0,0.5,0.1,0.8,0.2,1c0.3,0.6,0.9,0.9,1.6,1C8.8,7.6,10.1,6.5,10.5,4.7z"/>
	<path id="head_2_" class="st1" d="M12.1,0c0,0.9-0.3,1.2-1.1,1.2c-0.1,0-0.2,0-0.3,0c-0.1-0.3-0.2-0.6-0.3-0.8
		C10.3,0.2,10.1,0.1,10,0c0.1-0.1,0.2-0.2,0.4-0.4c0.1-0.2,0.2-0.5,0.3-0.8c0.1,0,0.2,0,0.3,0C11.9-1.2,12.1-0.9,12.1,0z"/>
	<path id="top-white-stripe_2_" class="st1" d="M7.9,1v-2c0.5,0.4,0.9,0.8,1.3,0.9c0,0,0,0,0,0c0,0,0,0,0,0c0,0,0,0,0,0c0,0,0,0,0,0
		C8.8,0.2,8.3,0.6,7.9,1z"/>
	<path id="left-wing_2_" class="st1" d="M6.4-4.2C6.1-5,6-5.6,6.3-6c0.2-0.4,0.7-0.6,1-0.6c1.2-0.2,2.2,0.7,2.5,2.1
		C10-3.7,10.1-3,10.1-2.4c0,1.1-0.3,1.7-0.4,1.7C9.2-0.7,7.1-2.5,6.4-4.2z"/>
	<path id="bottom-white-stripe_2_" class="st1" d="M5.1,2.1C4.9,2,4.8,2,4.6,1.9C4.3,1.8,4,1.6,3.8,1.5l0-2.9C4-1.6,4.3-1.8,4.6-1.9
		C4.8-2,4.9-2,5.1-2.1c0,0,0,0,0,0L5.1,2.1C5.1,2.1,5.1,2.1,5.1,2.1z"/>
	<path id="black-stripe_2_" d="M5.8,2.2l0-4.4c0.1,0,0.3,0,0.4,0c0.1,0,0.2,0,0.2,0c0.1,0,0.2,0,0.3,0C6.9-2,7-1.9,7.1-1.8l0,3.5
		C7,1.9,6.9,2,6.8,2.2c-0.1,0-0.2,0-0.3,0h0c-0.1,0-0.1,0-0.2,0C6.1,2.2,6,2.2,5.8,2.2z"/>
	<path id="right-wing_2_" class="st1" d="M7.3,6.6C7,6.6,6.5,6.4,6.3,6C6,5.6,6.1,5,6.4,4.2c0.7-1.7,2.8-3.5,3.3-3.5
		c0.2,0.1,0.7,1.4,0.2,3.8C9.5,5.9,8.5,6.8,7.3,6.6z"/>

	<animateMotion dur="20s" begin="12s" repeatCount="indefinite" rotate="auto" >
       <mpath xlink:href="#path-left-wide"/>
    </animateMotion>
</g>
</svg>
