<?xml version="1.0" encoding="utf-8"?>
<!-- Generator: Adobe Illustrator 25.2.1, SVG Export Plug-In . SVG Version: 6.00 Build 0)  -->
<svg version="1.1" id="Layer_1" xmlns="http://www.w3.org/2000/svg" xmlns:xlink="http://www.w3.org/1999/xlink" x="0px" y="0px"
	 viewBox="0 0 100 800" style="enable-background:new 0 0 100 800;" xml:space="preserve">
<style type="text/css">
	.st0{ fill:#FFFFFF; }
	.st1{ fill:none;stroke:#CCCCCC;stroke-linecap:round;stroke-miterlimit:10;stroke-dasharray:3;}
</style>
<path id="path-right-thin" class="st1" d="M108.3,48.2C88.2,53.8,68.2,59.4,48.1,65c-12,3.3-25.4,7.9-30.4,19.2c-3.5,7.9-1,18.5,6.6,22.7
	c4,2.3,9.2,2,13.3,0c6.4-3.2,1.7-13.1-4.9-10.1c-5.3,2.4-10.1,8-11.5,13.8c-2.5,10-0.2,21.1,6.2,29.3c3.4,4.4,7.8,7.9,11.8,11.7
	c19.3,18.7,28,51.5,11.5,72.7c-4.3,5.6-10.6,10.1-17.6,10.6c-8.3,0.5-17.3-6.2-15.4-15.2c1-4.7,5.2-8.3,10.1-7.9
	c4.8,0.4,7.4,4.2,9.4,7.9c20,37,6.5,82.7-9.9,121.5c-4.1,9.6-8.3,19.4-9.1,29.8c-0.7,10.4,2.8,21.8,11.4,27.6
	c8.6,5.8,22.6,3.5,26.7-6.2c4.8-11.6-13.2-27.3-21.8-11.3c-1.5,2.8-2.3,6-2.6,9.2l-12.7,183c-0.5,7.4-1,15.1,1.2,22.2
	s7.7,13.7,15,15c8.3,1.5,16.6-4.4,20.6-11.9c4-7.5,4.7-16.2,5.4-24.6c2.3-29.4,4.5-58.9,6.8-88.3c0.5-6.9-0.6-16.2-7.4-17.5
	c-7.6-1.4-11.6,8.6-12.1,16.3c-2.4,38.4,9.4,76.1,13.9,114.3c3.7,31.6,1.1,66.6-16,92.4c-5.5,8.3-18.6,4.6-18.7-5.3
	c0-3.5,0.4-6.9,1.3-10.3c0.7-2.4,2.1-4.6,4.2-5.9c4.7-2.9,9,0.2,11.7,3.7c12.8,16.5,4.6,44.4,20.6,57.8c5.4,4.6,12.6,6.3,19.4,8
	c23.9,5.7,31.4,20.6,49.6,4"/>
<g id="bee1_2_">
	<path id="bee-outline_3_" d="M10.5,4.7c0.3-1.1,0.3-2,0.3-2.7C10.9,2,11,2,11,2c0.9,0,1.5-0.4,1.8-1.1c0.6,0.2,1.1,0.7,1.3,1
		c0,0,0.1,0.1,0.1,0.1c0.1,0.2,0.4,0.2,0.5,0c0.1-0.2,0.1-0.4,0-0.6c0,0,0,0-0.1-0.1c-0.3-0.3-0.9-1-1.7-1.2c0,0,0,0,0-0.1
		s0,0,0-0.1c0.8-0.2,1.5-0.9,1.7-1.2c0,0,0-0.1,0.1-0.1c0.1-0.2,0.1-0.4,0-0.6c-0.1-0.2-0.4-0.1-0.5,0c0,0,0,0.1-0.1,0.1
		c-0.2,0.3-0.7,0.8-1.3,1C12.6-1.6,12-2,11-2c-0.1,0-0.2,0-0.2,0c0.1-0.7,0-1.6-0.3-2.7c-0.4-1.8-1.7-2.9-3.3-2.7
		c-0.7,0.1-1.3,0.4-1.6,1c-0.1,0.2-0.2,0.6-0.2,1c0,0.4,0.1,0.9,0.3,1.5C5.8-3.6,6-3.3,6.2-3C4.7-3,3.6-2.4,2.9-1.7c0,0,0,0,0,0
		c0,0,0,0-0.1,0.1C2.8-1.6,2.7-1.5,2.7-1.4c0,0-0.1,0-0.1,0L0.2-0.4C0.1-0.3,0-0.2,0,0s0.1,0.3,0.2,0.4l2.3,1.1c0,0,0.1,0,0.1,0
		c0.1,0.1,0.1,0.1,0.2,0.2c0,0,0,0,0.1,0.1c0,0,0,0,0,0C3.6,2.4,4.7,3,6.2,3C6,3.3,5.8,3.6,5.7,3.9C5.5,4.5,5.4,5,5.4,5.4
		c0,0.5,0.1,0.8,0.2,1c0.3,0.6,0.9,0.9,1.6,1C8.8,7.6,10.1,6.5,10.5,4.7z"/>
	<path id="head_3_" class="st0" d="M12.1,0c0,0.9-0.3,1.2-1.1,1.2c-0.1,0-0.2,0-0.3,0c-0.1-0.3-0.2-0.6-0.3-0.8
		C10.3,0.2,10.1,0.1,10,0c0.1-0.1,0.2-0.2,0.4-0.4c0.1-0.2,0.2-0.5,0.3-0.8c0.1,0,0.2,0,0.3,0C11.9-1.2,12.1-0.9,12.1,0z"/>
	<path id="top-white-stripe_3_" class="st0" d="M7.9,1v-2c0.5,0.4,0.9,0.8,1.3,0.9c0,0,0,0,0,0c0,0,0,0,0,0c0,0,0,0,0,0c0,0,0,0,0,0
		C8.8,0.2,8.3,0.6,7.9,1z"/>
	<path id="left-wing_3_" class="st0" d="M6.4-4.2C6.1-5,6-5.6,6.3-6c0.2-0.4,0.7-0.6,1-0.6c1.2-0.2,2.2,0.7,2.5,2.1
		C10-3.7,10.1-3,10.1-2.4c0,1.1-0.3,1.7-0.4,1.7C9.2-0.7,7.1-2.5,6.4-4.2z"/>
	<path id="bottom-white-stripe_3_" class="st0" d="M5.1,2.1C4.9,2,4.8,2,4.6,1.9C4.3,1.8,4,1.6,3.8,1.5l0-2.9C4-1.6,4.3-1.8,4.6-1.9
		C4.8-2,4.9-2,5.1-2.1c0,0,0,0,0,0L5.1,2.1C5.1,2.1,5.1,2.1,5.1,2.1z"/>
	<path id="black-stripe_3_" d="M5.8,2.2l0-4.4c0.1,0,0.3,0,0.4,0c0.1,0,0.2,0,0.2,0c0.1,0,0.2,0,0.3,0C6.9-2,7-1.9,7.1-1.8l0,3.5
		C7,1.9,6.9,2,6.8,2.2c-0.1,0-0.2,0-0.3,0h0c-0.1,0-0.1,0-0.2,0C6.1,2.2,6,2.2,5.8,2.2z"/>
	<path id="right-wing_3_" class="st0" d="M7.3,6.6C7,6.6,6.5,6.4,6.3,6C6,5.6,6.1,5,6.4,4.2c0.7-1.7,2.8-3.5,3.3-3.5
		c0.2,0.1,0.7,1.4,0.2,3.8C9.5,5.9,8.5,6.8,7.3,6.6z"/>
	<animateMotion dur="20s" repeatCount="indefinite" rotate="auto" >
       <mpath xlink:href="#path-right-thin"/>
    </animateMotion>
</g>
</svg>
