<?xml version="1.0" encoding="utf-8"?>
<!-- Generator: Adobe Illustrator 25.2.1, SVG Export Plug-In . SVG Version: 6.00 Build 0)  -->
<svg version="1.1" id="Layer_1" xmlns="http://www.w3.org/2000/svg" xmlns:xlink="http://www.w3.org/1999/xlink" x="0px" y="0px"
	 viewBox="0 0 150 800" style="enable-background:new 0 0 150 800;" xml:space="preserve">
<style type="text/css">
	.st0{fill:#FFFFFF;}
	.st1{fill:none;stroke:#CCCCCC;stroke-linecap:round;stroke-miterlimit:10;stroke-dasharray:3;}
</style>
<path id="path-right-wide" class="st1" d="M194.1,51.4c-31.2-3.2-62.8-2.4-93.7,2.3C81.6,56.6,61.4,62,50.3,77.4c-3.4,4.7-5.8,10.6-4.5,16.3
	c1.4,6.1,6.7,10.5,12.4,13.3c10,4.9,21.9,5.8,32.6,2.6c2.2-0.7,4.6-1.8,5.5-3.9c1.2-3.1-1.6-6.3-4.5-8.1
	c-11.2-6.8-26.5-4.6-36.9,3.3s-16.4,20.8-18.3,33.8c-1.1,7.7-0.8,16,3.4,22.5c3.3,5.2,8.8,8.6,14.3,11.4
	c16.8,8.6,35.8,12.6,54.6,11.5c4-0.2,8.6-1,10.8-4.3c2.6-3.9,0.7-9.6-3.1-12.3c-3.8-2.7-8.8-3.1-13.5-2.8
	C80,162.3,59.3,180.5,54.8,203c-1.4,6.6-1.4,13.7,0.9,20.1c5.3,15,21.3,22.8,34.2,32.2c14.8,10.8,27.4,27.5,25.5,45.7
	c-2.5,23.1-26,37-46.8,47.2c-9.7,4.8-21.3,9.6-31,4.6c-6.5-3.3-10.4-11-9.3-18.2c1.1-7.2,7.1-13.4,14.3-14.6
	c15.6-2.7,27,17,23.8,32.5c-3.2,15.5-14.9,27.5-23.9,40.6c-9,13-15.5,30.6-7.5,44.2c10.5,17.9,37,16.1,54.9,26.7
	c17.1,10.2,24.7,30.9,28.5,50.4c2.7,13.8,3.1,30.5-8,39.1c-16.7,13.1-44.8-3.3-61.2,10.2c-5.6,4.7-8.3,12-10.8,18.9
	c-3.7,10.3-7.4,21-6.6,31.8s7.3,22.2,17.8,25c8.1,2.2,16.6-0.9,24.8-2.5c8.2-1.6,18.2-1.2,23.1,5.6c2.6,3.6,3.1,8.2,3.6,12.6
	c1.8,16.6,3.7,33.5-0.1,49.7c-3.7,16.2-14.1,31.9-29.9,37.4c-5.8,2-12.3,2.5-18,0.3c-7.8-3.1-12.7-10.7-17-17.9
	c-5.8-10-11.4-20.6-12.2-32.1c-0.7-11.5,4.8-24.2,15.6-28.4c12.8-4.9,26.8,3.5,36.4,13.2c17.4,17.7,29.6,41.3,51.4,53.1
	c25.8,13.9,58.3,7,84.2-6.8"/>
<g id="bee1_3_">
	<path id="bee-outline_4_" d="M10.5,4.7c0.3-1.1,0.3-2,0.3-2.7C10.9,2,11,2,11,2c0.9,0,1.5-0.4,1.8-1.1c0.6,0.2,1.1,0.7,1.3,1
		c0,0,0.1,0.1,0.1,0.1c0.1,0.2,0.4,0.2,0.5,0c0.1-0.2,0.1-0.4,0-0.6c0,0,0,0-0.1-0.1c-0.3-0.3-0.9-1-1.7-1.2c0,0,0,0,0-0.1
		s0,0,0-0.1c0.8-0.2,1.5-0.9,1.7-1.2c0,0,0-0.1,0.1-0.1c0.1-0.2,0.1-0.4,0-0.6c-0.1-0.2-0.4-0.1-0.5,0c0,0,0,0.1-0.1,0.1
		c-0.2,0.3-0.7,0.8-1.3,1C12.6-1.6,12-2,11-2c-0.1,0-0.2,0-0.2,0c0.1-0.7,0-1.6-0.3-2.7c-0.4-1.8-1.7-2.9-3.3-2.7
		c-0.7,0.1-1.3,0.4-1.6,1c-0.1,0.2-0.2,0.6-0.2,1c0,0.4,0.1,0.9,0.3,1.5C5.8-3.6,6-3.3,6.2-3C4.7-3,3.6-2.4,2.9-1.7c0,0,0,0,0,0
		c0,0,0,0-0.1,0.1C2.8-1.6,2.7-1.5,2.7-1.4c0,0-0.1,0-0.1,0L0.2-0.4C0.1-0.3,0-0.2,0,0s0.1,0.3,0.2,0.4l2.3,1.1c0,0,0.1,0,0.1,0
		c0.1,0.1,0.1,0.1,0.2,0.2c0,0,0,0,0.1,0.1c0,0,0,0,0,0C3.6,2.4,4.7,3,6.2,3C6,3.3,5.8,3.6,5.7,3.9C5.5,4.5,5.4,5,5.4,5.4
		c0,0.5,0.1,0.8,0.2,1c0.3,0.6,0.9,0.9,1.6,1C8.8,7.6,10.1,6.5,10.5,4.7z"/>
	<path id="head_4_" class="st0" d="M12.1,0c0,0.9-0.3,1.2-1.1,1.2c-0.1,0-0.2,0-0.3,0c-0.1-0.3-0.2-0.6-0.3-0.8
		C10.3,0.2,10.1,0.1,10,0c0.1-0.1,0.2-0.2,0.4-0.4c0.1-0.2,0.2-0.5,0.3-0.8c0.1,0,0.2,0,0.3,0C11.9-1.2,12.1-0.9,12.1,0z"/>
	<path id="top-white-stripe_4_" class="st0" d="M7.9,1v-2c0.5,0.4,0.9,0.8,1.3,0.9c0,0,0,0,0,0c0,0,0,0,0,0c0,0,0,0,0,0c0,0,0,0,0,0
		C8.8,0.2,8.3,0.6,7.9,1z"/>
	<path id="left-wing_4_" class="st0" d="M6.4-4.2C6.1-5,6-5.6,6.3-6c0.2-0.4,0.7-0.6,1-0.6c1.2-0.2,2.2,0.7,2.5,2.1
		C10-3.7,10.1-3,10.1-2.4c0,1.1-0.3,1.7-0.4,1.7C9.2-0.7,7.1-2.5,6.4-4.2z"/>
	<path id="bottom-white-stripe_4_" class="st0" d="M5.1,2.1C4.9,2,4.8,2,4.6,1.9C4.3,1.8,4,1.6,3.8,1.5l0-2.9C4-1.6,4.3-1.8,4.6-1.9
		C4.8-2,4.9-2,5.1-2.1c0,0,0,0,0,0L5.1,2.1C5.1,2.1,5.1,2.1,5.1,2.1z"/>
	<path id="black-stripe_4_" d="M5.8,2.2l0-4.4c0.1,0,0.3,0,0.4,0c0.1,0,0.2,0,0.2,0c0.1,0,0.2,0,0.3,0C6.9-2,7-1.9,7.1-1.8l0,3.5
		C7,1.9,6.9,2,6.8,2.2c-0.1,0-0.2,0-0.3,0h0c-0.1,0-0.1,0-0.2,0C6.1,2.2,6,2.2,5.8,2.2z"/>
	<path id="right-wing_4_" class="st0" d="M7.3,6.6C7,6.6,6.5,6.4,6.3,6C6,5.6,6.1,5,6.4,4.2c0.7-1.7,2.8-3.5,3.3-3.5
		c0.2,0.1,0.7,1.4,0.2,3.8C9.5,5.9,8.5,6.8,7.3,6.6z"/>

	<animateMotion dur="20s" repeatCount="indefinite" rotate="auto" >
       <mpath xlink:href="#path-right-wide"/>
    </animateMotion>
</g>
</svg>
