<?xml version="1.0" encoding="utf-8"?>
<!-- Generator: Adobe Illustrator 25.2.1, SVG Export Plug-In . SVG Version: 6.00 Build 0)  -->
<svg version="1.1" id="Layer_1" xmlns="http://www.w3.org/2000/svg" xmlns:xlink="http://www.w3.org/1999/xlink" x="0px" y="0px"
	 viewBox="0 0 100 800" style="enable-background:new 0 0 100 800;" xml:space="preserve">
<style type="text/css">
	.st0{fill:none;stroke:#CCCCCC;stroke-linecap:round;stroke-miterlimit:10;}
	.st1{fill:none;stroke:#CCCCCC;stroke-linecap:round;stroke-miterlimit:10;stroke-dasharray:2.9979,2.9979;}
	.st2{fill:#FFFFFF;}
</style>
<g>
	<path class="st0" d="M-61.5,40c0.5,0,1,0,1.5,0"/>
	<path class="st1" id="path-left-thin" d="M-57,39.9c22.2-0.7,44.5-1.3,66.7-2c24.6-0.7,53.3,0.5,67.6,20.5c14,19.6,2.7,51.7-20.5,58.1
		c-6.7,1.9-15.4,1-18.6-5.1c-3.8-7.2,2.8-16,10.4-18.8c18.6-6.6,38.9,11,41.9,30.5s-6.3,38.8-17.2,55.3c-11.2,17-25,35.6-20.9,55.5
		c2.8,13.7,13.5,24.2,20.4,36.3c10.5,18.6,11.5,42.3,2.6,61.8c-5,11.1-14.1,21.4-26.1,23.3s-25.7-8.5-23.6-20.4
		c2.1-11.7,18.1-16.9,28.4-10.9c10.3,6,14.5,19.2,13.2,31.1c-1.3,11.8-7,22.7-12.7,33.2c-7,13.1-14.1,26.2-21.1,39.4
		c-6.1,11.3-12.3,23.3-12,36.1s9.8,26.4,22.6,26.3c12.1-0.1,21.2-12,23.5-24c0.6-2.9,0.4-6.7-2.2-8c-2.7-1.3-5.8,0.9-7.5,3.4
		c-6,9-2.4,21.4,3.4,30.6c5.8,9.2,13.7,17.3,16.7,27.7c7.4,25.6-16.9,48.2-26.8,72.9c-8.5,21.1-6.4,44.6-6.7,67.3
		c-0.4,30.3-5.3,60.5-14.5,89.3c-2.5,7.8-5.5,15.8-11.8,21c-4.5,3.7-10.1,5.5-15.6,7.3c-15,4.8-30,9.6-44.9,14.4"/>
	<path class="st0" d="M-43.6,792.1c-0.5,0.2-1,0.3-1.4,0.5"/>
</g>

<g id="bee1">
	<path id="bee-outline_1_" d="M10.5,4.8c0.3-1.1,0.3-2,0.3-2.7c0.1,0,0.1,0,0.2,0c0.9,0,1.5-0.4,1.8-1.1c0.6,0.2,1.1,0.7,1.3,1
		c0,0,0.1,0.1,0.1,0.1c0.1,0.2,0.4,0.2,0.5,0c0.1-0.2,0.1-0.4,0-0.6c0,0,0,0-0.1-0.1c-0.3-0.3-0.9-1-1.7-1.2c0,0,0,0,0-0.1
		s0,0,0-0.1c0.8-0.2,1.5-0.9,1.7-1.2c0,0,0-0.1,0.1-0.1c0.1-0.2,0.1-0.4,0-0.6c-0.1-0.2-0.4-0.1-0.5,0c0,0,0,0.1-0.1,0.1
		c-0.2,0.3-0.7,0.8-1.3,1C12.6-1.5,12-1.9,11-1.9c-0.1,0-0.2,0-0.2,0c0.1-0.7,0-1.6-0.3-2.7c-0.4-1.8-1.7-2.9-3.3-2.7
		c-0.7,0.1-1.3,0.4-1.6,1C5.5-6,5.4-5.7,5.4-5.3c0,0.4,0.1,0.9,0.3,1.5C5.8-3.5,6-3.2,6.2-2.9c-1.5,0-2.6,0.6-3.2,1.3c0,0,0,0,0,0
		c0,0,0,0-0.1,0.1C2.8-1.5,2.7-1.4,2.7-1.3c0,0-0.1,0-0.1,0L0.2-0.3C0.1-0.2,0,0,0,0.1s0.1,0.3,0.2,0.4l2.3,1.1c0,0,0.1,0,0.1,0
		c0.1,0.1,0.1,0.1,0.2,0.2c0,0,0,0,0.1,0.1c0,0,0,0,0,0c0.7,0.7,1.7,1.2,3.2,1.3C6,3.4,5.8,3.7,5.7,4C5.5,4.6,5.4,5.1,5.4,5.5
		c0,0.5,0.1,0.8,0.2,1c0.3,0.6,0.9,0.9,1.6,1C8.8,7.7,10.1,6.6,10.5,4.8z"/>
	<path id="head_1_" class="st2" d="M12.1,0.1c0,0.9-0.3,1.2-1.1,1.2c-0.1,0-0.2,0-0.3,0c-0.1-0.3-0.2-0.6-0.3-0.8
		c-0.1-0.2-0.2-0.3-0.4-0.4c0.1-0.1,0.2-0.2,0.4-0.4c0.1-0.2,0.2-0.5,0.3-0.8c0.1,0,0.2,0,0.3,0C11.9-1.1,12.1-0.8,12.1,0.1z"/>
	<path id="top-white-stripe_1_" class="st2" d="M7.9,1.1v-2c0.5,0.4,0.9,0.8,1.3,0.9c0,0,0,0,0,0c0,0,0,0,0,0c0,0,0,0,0,0
		c0,0,0,0,0,0C8.8,0.4,8.3,0.7,7.9,1.1z"/>
	<path id="left-wing_1_" class="st2" d="M6.4-4.1C6.1-4.9,6-5.5,6.3-5.9c0.2-0.4,0.7-0.6,1-0.6c1.2-0.2,2.2,0.7,2.5,2.1
		c0.2,0.8,0.3,1.5,0.3,2.1c0,1.1-0.3,1.7-0.4,1.7C9.2-0.6,7.1-2.4,6.4-4.1z"/>
	<path id="bottom-white-stripe_1_" class="st2" d="M5.1,2.2C4.9,2.1,4.8,2.1,4.6,2C4.3,1.9,4,1.7,3.8,1.6l0-2.9
		C4-1.5,4.3-1.7,4.6-1.8C4.8-1.9,4.9-1.9,5.1-2c0,0,0,0,0,0L5.1,2.2C5.1,2.2,5.1,2.2,5.1,2.2z"/>
	<path id="black-stripe_1_" d="M5.8,2.3l0-4.4c0.1,0,0.3,0,0.4,0c0.1,0,0.2,0,0.2,0c0.1,0,0.2,0,0.3,0C6.9-1.9,7-1.8,7.1-1.6l0,3.5
		C7,2,6.9,2.1,6.8,2.3c-0.1,0-0.2,0-0.3,0h0c-0.1,0-0.1,0-0.2,0C6.1,2.3,6,2.3,5.8,2.3z"/>
	<path id="right-wing_1_" class="st2" d="M7.3,6.7c-0.3,0-0.8-0.2-1-0.6C6,5.7,6.1,5.1,6.4,4.3c0.7-1.7,2.8-3.5,3.3-3.5
		c0.2,0.1,0.7,1.4,0.2,3.8C9.5,6.1,8.5,6.9,7.3,6.7z"/>

	<animateMotion dur="20s" begin="12s" repeatCount="indefinite" rotate="auto" >
       <mpath xlink:href="#path-left-thin"/>
    </animateMotion>
</g>

</svg>
