<svg xmlns="http://www.w3.org/2000/svg" viewBox="0 0 561 324"><defs><style>.cls-1{opacity:.1;}.cls-2{fill:#fff0c3;}</style></defs><g id="Layer_1" data-name="Layer 1"><g class="cls-1"><path class="cls-2" d="M71.09,285.33a5,5,0,0,0,1.83-1.83l69-119.5a5,5,0,0,0,0-5l-69-119.5A5,5,0,0,0,68.59,37H0V57H59.93l60.33,104.5L59.93,266H0v20H68.59A5,5,0,0,0,71.09,285.33Z"/><path class="cls-2" d="M422.94,324a5,5,0,0,0-.64-3l-69-119.5A5,5,0,0,0,349,199H211a5,5,0,0,0-2.5.67,4.94,4.94,0,0,0-1.83,1.83l-69,119.5a5,5,0,0,0-.64,3h22.58l-.29-.5L219.65,219H340.32l60.33,104.5-.29.5Z"/><path class="cls-2" d="M561,266H500.25L439.92,161.5,500.25,57H561V37H491.59a5,5,0,0,0-4.33,2.5l-69,119.5a5,5,0,0,0,0,5l69,119.5a5,5,0,0,0,4.33,2.5H561Z"/><path class="cls-2" d="M137.67,2l69,119.5A5,5,0,0,0,211,124H349a5,5,0,0,0,2.51-.67,5.09,5.09,0,0,0,1.83-1.83L422.3,2a5,5,0,0,0,.64-2H400.36l-60,104H219.65l-60-104H137A5,5,0,0,0,137.67,2Z"/></g></g></svg>