<svg id="Layer_1" data-name="Layer 1" xmlns="http://www.w3.org/2000/svg" viewBox="0 0 381 146"><path d="M59.54,43.83c-2.55-2-6-3.2-10.36-3.74a18.48,18.48,0,0,0,7.93-3.4,10.4,10.4,0,0,0,4.42-8.51q0-6.57-4.74-9.83T42.21,15.07L15.9,15l-.29,4.54,5.93,1.59A19.5,19.5,0,0,1,22,25.62c.11,2.69.17,6,.16,9.87l0,13.52q0,5.55-.21,9.59a22.2,22.2,0,0,1-.48,4.67l-5.93,1.47.27,4.63,24.36.07q11.39,0,17.75-4.17a13.32,13.32,0,0,0,6.37-11.7A11.6,11.6,0,0,0,59.54,43.83ZM34.63,24.17q.06-3.11.15-3.93h3.43q5.1,0,7.54,2.47a9,9,0,0,1,2.44,6.63q0,4.63-2.52,7.08t-7.51,2.43c-.86,0-1.65,0-2.36,0l-1.25-.07,0-7.3C34.58,28.67,34.6,26.24,34.63,24.17ZM48.15,61.63q-2.74,2.44-7.74,2.43a21.57,21.57,0,0,1-3.06-.24,11.18,11.18,0,0,1-2.59-.6c-.06-.68-.12-1.93-.17-3.76s-.09-4-.08-6.43l0-8.38c.44,0,.88,0,1.3,0h2.78c4.26,0,7.37.84,9.35,2.48s2.95,4.22,2.94,7.74A8.68,8.68,0,0,1,48.15,61.63Z"/><path d="M114.53,56c-.06-1.7-.08-3.29-.08-4.77l0-7.41c0-2.22,0-4.17,0-5.83s0-3.15.1-4.45.13-2.47.2-3.52l-2.5-1.58L95.51,32.53V36.7L102.08,38c.12,1,.22,2.08.31,3.1s.13,2.1.13,3.24,0,2.49,0,4l0,8.89a8.61,8.61,0,0,1-3.35,3.33,8.42,8.42,0,0,1-3.89,1,7.63,7.63,0,0,1-5.74-2.24c-1.41-1.49-2.12-3.83-2.11-7.05l.12-7.78c0-2.71.06-5.37.16-8s.21-4.82.34-6.67l-2.59-1.58L68.74,32.46v4.17L75,37.94q.18,2,.27,3.9c0,1.29.08,2.62.08,4l0,7.87q0,8.34,4.13,12.56A14.6,14.6,0,0,0,90.32,70.5a13.18,13.18,0,0,0,6.44-1.7,16.75,16.75,0,0,0,5.8-6l.28.09-.11,6.49,2.5,1.39L121,66.6v-4l-6.11-1.4C114.71,59.42,114.59,57.67,114.53,56Z"/><path d="M147.35,45.18A36.69,36.69,0,0,1,140,41.4a4.47,4.47,0,0,1-2-3.66,3.78,3.78,0,0,1,1.68-3.24,7.45,7.45,0,0,1,4.45-1.19,10.61,10.61,0,0,1,2.54.33,8.21,8.21,0,0,1,2.27.89l2,6.58,5.93,0-1-10.75a22.3,22.3,0,0,0-5.09-1.5,34.71,34.71,0,0,0-6-.57,26.3,26.3,0,0,0-9.64,1.6,14.89,14.89,0,0,0-6.49,4.52,10.52,10.52,0,0,0-2.34,6.71,10.58,10.58,0,0,0,2.67,7.41c1.78,2,5,3.81,9.52,5.49q5,2,6.62,3.4a4.51,4.51,0,0,1,1.61,3.48,3.72,3.72,0,0,1-1.49,3.1,7,7,0,0,1-4.36,1.15A14,14,0,0,1,133.5,63l-1.93-6.68h-6L126,67.26a27.51,27.51,0,0,0,6.47,2.28,33.26,33.26,0,0,0,7.69.9q8.15,0,13.3-3.53a10.94,10.94,0,0,0,5.17-9.38,10,10,0,0,0-2.58-7Q153.46,47.7,147.35,45.18Z"/><path d="M190.37,29.17l-.29,4.26,5.74,1.5-8.61,19.48-8.9-19.52,5.75-1.47-.27-4.26-23.62-.07-.28,4.26,4.34,1.5L180.1,68.11,175,77.52l-6.36,1.71a10.56,10.56,0,0,0-5,2.62,5.36,5.36,0,0,0-1.63,3.75,4.77,4.77,0,0,0,1.8,3.76,7.46,7.46,0,0,0,4.95,1.54,9.58,9.58,0,0,0,5.56-1.79c1.73-1.2,3.41-3.5,5-6.89l7.36-15.36L203,35l4.36-1.47-.27-4.26Z"/><path d="M271.93,44.4c-2.55-2-6-3.2-10.36-3.75a18.4,18.4,0,0,0,7.93-3.39,10.44,10.44,0,0,0,4.42-8.51q0-6.57-4.75-9.83t-14.58-3.28l-26.3-.07L228,20.1l5.92,1.6a18.2,18.2,0,0,1,.45,4.49c.12,2.69.17,6,.16,9.86l0,13.53c0,3.7-.08,6.9-.21,9.58a22.24,22.24,0,0,1-.48,4.68l-5.93,1.47.27,4.63L252.5,70q11.4,0,17.75-4.16a13.31,13.31,0,0,0,6.38-11.7A11.58,11.58,0,0,0,271.93,44.4ZM247,24.74c0-2.07.09-3.38.15-3.94h3.43c3.39,0,5.91.84,7.54,2.48a9,9,0,0,1,2.44,6.63q0,4.63-2.52,7.08c-1.67,1.63-4.18,2.44-7.51,2.43-.87,0-1.65,0-2.36,0l-1.25-.07,0-7.3C247,29.23,247,26.81,247,24.74ZM260.54,62.2q-2.75,2.44-7.74,2.43a21.57,21.57,0,0,1-3.06-.24,11.11,11.11,0,0,1-2.59-.61q-.09-1-.18-3.75c-.05-1.82-.08-4-.07-6.44l0-8.37c.44,0,.88,0,1.3,0H251q6.39,0,9.34,2.47t3,7.75A8.71,8.71,0,0,1,260.54,62.2Z"/><path d="M314.5,60.86A13.86,13.86,0,0,1,308.75,62a11.84,11.84,0,0,1-9.34-4,14.46,14.46,0,0,1-3.45-8.9l26,.07V46.94q0-8.05-4.41-13.12t-12.67-5.08a19.31,19.31,0,0,0-10.25,2.66A21.75,21.75,0,0,0,286.86,39a21.32,21.32,0,0,0-3,11.34,20.66,20.66,0,0,0,2.61,10.47,19.34,19.34,0,0,0,7.3,7.34,21,21,0,0,0,10.69,2.71A19.86,19.86,0,0,0,315,68a18.89,18.89,0,0,0,7.34-8.41l-2.86-2.69A14.82,14.82,0,0,1,314.5,60.86ZM300,35.12a7.17,7.17,0,0,1,4.12-1.29,6.37,6.37,0,0,1,5.37,2.61,11.14,11.14,0,0,1,1.92,6.86v1l-15.42,0a16.38,16.38,0,0,1,1-5.23A8.41,8.41,0,0,1,300,35.12Z"/><path d="M363.69,57.05a14.74,14.74,0,0,1-5,3.93,13.83,13.83,0,0,1-5.75,1.14,11.87,11.87,0,0,1-9.34-4,14.46,14.46,0,0,1-3.45-8.9l26,.07V47.06q0-8.06-4.41-13.12T349,28.86a19.25,19.25,0,0,0-10.24,2.66A21.77,21.77,0,0,0,331,39.14a21.27,21.27,0,0,0-3,11.34A20.76,20.76,0,0,0,330.66,61a19.34,19.34,0,0,0,7.3,7.34A21,21,0,0,0,348.65,71a20,20,0,0,0,10.56-2.84,18.89,18.89,0,0,0,7.34-8.41ZM344.16,35.23A7.11,7.11,0,0,1,348.28,34a6.36,6.36,0,0,1,5.37,2.61,11.2,11.2,0,0,1,1.93,6.86v1l-15.42,0a16.5,16.5,0,0,1,1-5.23A8.52,8.52,0,0,1,344.16,35.23Z"/><path d="M79.63,119.71a14.08,14.08,0,0,1-1.48-1.77l-3.67-5.12c.15-.06.31-.1.46-.17a7.24,7.24,0,0,0,3-2.19A5,5,0,0,0,79,107.3a4.64,4.64,0,0,0-2-4.18c-1.32-.88-3.38-1.32-6.15-1.32H61.5l-.11,1.81,2.31.57a3.71,3.71,0,0,1,.13.91c0,.51.07,1.16.09,2s0,1.72,0,2.73v5.29c0,.46,0,1,0,1.56s0,1.14,0,1.7,0,1,0,1.44,0,.69,0,.84l-2.32.61.11,1.81h9.23l.11-1.81-2-.61c0-.29,0-.76-.07-1.4s0-1.33,0-2.08,0-1.43,0-2.06v-1.63h1.28l1.79,3.87a14.19,14.19,0,0,0,2.23,3.48,7.71,7.71,0,0,0,2.82,2,9.24,9.24,0,0,0,3.6.66,10.6,10.6,0,0,0,1.14-.06,11.16,11.16,0,0,0,1.14-.16l0-1.67a7.25,7.25,0,0,1-1.7-.7A6.86,6.86,0,0,1,79.63,119.71Zm-10.82-10.2v-3.79c0-.52,0-.94,0-1.28a2.86,2.86,0,0,1,0-.62h1.37a3.74,3.74,0,0,1,2.7.89,3.4,3.4,0,0,1,.92,2.59,3.78,3.78,0,0,1-4,4h-1Z"/><path d="M96.3,107.88a8.61,8.61,0,0,0-4.26-1,9.51,9.51,0,0,0-4.23,1,8,8,0,0,0-3.22,2.86,8.85,8.85,0,0,0-.15,8.74,7.67,7.67,0,0,0,3,2.86,9.22,9.22,0,0,0,4.45,1,7.93,7.93,0,0,0,4.18-1.12,8.65,8.65,0,0,0,3-3,8.88,8.88,0,0,0,.09-8.47A7.23,7.23,0,0,0,96.3,107.88Zm-1.52,10.86a3.82,3.82,0,0,1-1,1.7,2.23,2.23,0,0,1-1.54.58,2.64,2.64,0,0,1-1.94-.89A6.16,6.16,0,0,1,89,117.69a11.48,11.48,0,0,1-.49-3.48,7.52,7.52,0,0,1,.81-3.78,2.44,2.44,0,0,1,2.15-1.4,3,3,0,0,1,2.66,2,11.07,11.07,0,0,1,1,5.07A9.24,9.24,0,0,1,94.78,118.74Z"/><path d="M115.59,107.88a8.59,8.59,0,0,0-4.25-1,9.53,9.53,0,0,0-4.24,1,8,8,0,0,0-3.22,2.86,8.85,8.85,0,0,0-.15,8.74,7.67,7.67,0,0,0,3,2.86,9.22,9.22,0,0,0,4.45,1,7.93,7.93,0,0,0,4.18-1.12,8.65,8.65,0,0,0,3-3,8.88,8.88,0,0,0,.09-8.47A7.23,7.23,0,0,0,115.59,107.88Zm-1.52,10.86a3.82,3.82,0,0,1-1,1.7,2.21,2.21,0,0,1-1.54.58,2.61,2.61,0,0,1-1.93-.89,6,6,0,0,1-1.34-2.44,11.48,11.48,0,0,1-.49-3.48,7.52,7.52,0,0,1,.81-3.78,2.45,2.45,0,0,1,2.16-1.4,3,3,0,0,1,2.66,2,11.21,11.21,0,0,1,1,5.07A9.24,9.24,0,0,1,114.07,118.74Z"/><path d="M132.15,119.68a3.79,3.79,0,0,1-1.3.25,3,3,0,0,1-2-.65,2.79,2.79,0,0,1-.74-2.17l.06-7.64h5.11v-2.28h-5.08l0-3.77h-1.12l-6.19,4.93v1.12h2.54l-.11,8.07a5.63,5.63,0,0,0,1.61,4.4A5.84,5.84,0,0,0,129,123.4a5.73,5.73,0,0,0,3.2-.92,4.72,4.72,0,0,0,2-2.48l-.9-1A3.61,3.61,0,0,1,132.15,119.68Z"/><path d="M146.88,119.4a5.31,5.31,0,0,1-2.24.46A4.65,4.65,0,0,1,141,118.3a5.6,5.6,0,0,1-1.33-3.47h10.13V114a7.44,7.44,0,0,0-1.74-5.12,6.25,6.25,0,0,0-5-2,7.63,7.63,0,0,0-4,1,8.56,8.56,0,0,0-3,3,8.27,8.27,0,0,0-1.16,4.43,8.07,8.07,0,0,0,1,4.09,7.55,7.55,0,0,0,2.86,2.86,8.24,8.24,0,0,0,4.18,1,7.78,7.78,0,0,0,4.13-1.12,7.46,7.46,0,0,0,2.86-3.29l-1.13-1A5.62,5.62,0,0,1,146.88,119.4Zm-5.7-10a2.77,2.77,0,0,1,1.61-.51,2.48,2.48,0,0,1,2.1,1,4.33,4.33,0,0,1,.76,2.68v.39h-6a6.26,6.26,0,0,1,.4-2A3.27,3.27,0,0,1,141.18,109.36Z"/><path d="M164.54,107.51a2.76,2.76,0,0,0-1.7-.54,3.85,3.85,0,0,0-2.22.73,7.08,7.08,0,0,0-2.09,2.75l-.1,0,.14-2.86-1-.61-6.26,1.62v1.63l2.32.51a17.84,17.84,0,0,1,.25,1.79c0,.57.07,1.21.07,1.94l0,2.71c0,.58,0,1.13,0,1.65s-.05.95-.07,1.3-.05.58-.07.67l-2.25.62.11,1.66H161.9l.11-1.74-3.15-.54c0-.14,0-.45,0-.92s0-1.06-.07-1.77-.05-1.52-.07-2.41l0-2.86a8.09,8.09,0,0,1,.89-1.41,5.74,5.74,0,0,1,.58-.62,3.79,3.79,0,0,0,1,.62,4,4,0,0,0,1.55.29,2.84,2.84,0,0,0,1.87-.65,2.24,2.24,0,0,0,.78-1.81A2,2,0,0,0,164.54,107.51Z"/><path d="M198.58,119.86a6,6,0,0,1-1.86.32,7.06,7.06,0,0,1-3-.65,9.23,9.23,0,0,1-1-.56l.28-.27a23.49,23.49,0,0,0,3.83-5.86l2.54-.4-.11-1.81-8.4,0-.11,1.81,2.54.37a15.29,15.29,0,0,1-2.25,4.3,2.85,2.85,0,0,1-.23.26,39.73,39.73,0,0,1-3.13-3.59c-.94-1.16-1.7-2.18-2.33-3.06a17.22,17.22,0,0,0,2.34-1.39,9,9,0,0,0,2.46-2.53,5.44,5.44,0,0,0,.82-2.9,4.69,4.69,0,0,0-1.54-3.71,6.23,6.23,0,0,0-4.25-1.36,7.76,7.76,0,0,0-3.64.85,6.31,6.31,0,0,0-2.53,2.41,7,7,0,0,0-.93,3.66,8.86,8.86,0,0,0,.42,2.6,12.68,12.68,0,0,0,1.21,2.67,13.82,13.82,0,0,0-2.08,1,8.53,8.53,0,0,0-2.7,2.41,5.24,5.24,0,0,0,0,6,6.48,6.48,0,0,0,2.83,2.15,11.71,11.71,0,0,0,4.63.81,14.13,14.13,0,0,0,5.79-1.17c.28-.13.55-.28.82-.42a13.81,13.81,0,0,0,1.32.69,11.45,11.45,0,0,0,4.63.9,8.47,8.47,0,0,0,3.8-.85,7.23,7.23,0,0,0,2.82-2.4l-1.19-1.31A5.3,5.3,0,0,1,198.58,119.86Zm-15.4-18.06a2.17,2.17,0,0,1,1.7-.8,1.86,1.86,0,0,1,1.45.65,2.92,2.92,0,0,1,.58,2,6.62,6.62,0,0,1-.41,2.39,5.94,5.94,0,0,1-1.53,2.08,10.81,10.81,0,0,1-.9.75c-.21-.37-.42-.72-.58-1a9.57,9.57,0,0,1-.78-2,7.63,7.63,0,0,1-.21-1.73A3.38,3.38,0,0,1,183.18,101.8Zm.8,18.56a6.35,6.35,0,0,1-2.75-.5,3.67,3.67,0,0,1-1.58-1.36,3.43,3.43,0,0,1-.52-1.83,4.36,4.36,0,0,1,1-2.71,5,5,0,0,1,.86-.85c.49.73,1,1.51,1.67,2.37a36.35,36.35,0,0,0,3.75,4.34c.07.08.16.14.24.22A10.63,10.63,0,0,1,184,120.36Z"/><path d="M225.37,103.41c-1.46-1.08-3.68-1.61-6.64-1.61h-9.2l-.11,1.81,2.29.47a2.18,2.18,0,0,1,.14.9c0,.51.05,1.15.07,1.92s0,1.62,0,2.53l0,5.83c0,1,0,1.84,0,2.62s0,1.42-.08,1.9a2.07,2.07,0,0,1-.14.87l-2.14.58.11,1.81h10.28l.11-1.88-2.93-.54a5.61,5.61,0,0,1-.09-.85c0-.47-.07-1.1-.11-1.89s-.06-1.65-.06-2.62v-.39l.66.1a10.14,10.14,0,0,0,1.23.07,11.14,11.14,0,0,0,4.76-.92,7.13,7.13,0,0,0,3-2.52,6.34,6.34,0,0,0,1.05-3.58A5.37,5.37,0,0,0,225.37,103.41Zm-4,8.23a3.39,3.39,0,0,1-2.68,1.09,7.19,7.19,0,0,1-1.38-.13c-.19,0-.36-.08-.52-.13l0-3c0-1.11,0-2,0-2.8s0-1.37,0-1.83,0-.78,0-1h1a4.59,4.59,0,0,1,3.26,1.12,5.8,5.8,0,0,1,.26,6.7Z"/><path d="M236.54,118.64c0-1.17,0-2.6,0-4.28l0-5.33c0-1.73,0-3.2,0-4.41s0-2.29.06-3.24.06-1.94.1-2.95l-1-.62-6.91,1.78.07,1.55,2.68.37c.05.41.08.92.11,1.53s0,1.31,0,2.07,0,1.55,0,2.37,0,1.65,0,2.5v4.56c0,.82,0,1.66,0,2.53s-.05,1.63-.09,2.3-.07,1.13-.09,1.39l-2.35.58.11,1.7h9.62l.08-1.7-2.36-.58A18,18,0,0,1,236.54,118.64Z"/><path d="M257.6,117.7c0-.66,0-1.28,0-1.86v-5.18c0-.65,0-1.23,0-1.73s0-1,.07-1.38l-1-.61-6.55,1.62v1.63l2.57.51c0,.41.09.81.13,1.21s0,.82,0,1.27v5a3.31,3.31,0,0,1-1.3,1.3,3.2,3.2,0,0,1-1.52.4,2.94,2.94,0,0,1-2.24-.87,3.85,3.85,0,0,1-.84-2.75l0-3c0-1.06,0-2.1.05-3.11s.08-1.89.13-2.61l-1-.61-6.52,1.62v1.63l2.46.51c.05.51.09,1,.11,1.52s0,1,0,1.56v3.07a6.7,6.7,0,0,0,1.63,4.91,5.67,5.67,0,0,0,4.23,1.64,5.12,5.12,0,0,0,2.52-.67,6.49,6.49,0,0,0,2.26-2.33l.11,0,0,2.53,1,.54,6.15-1.66v-1.56l-2.39-.54C257.67,119.05,257.62,118.37,257.6,117.7Z"/><path d="M289.16,119.39q0-1.1,0-2.28l-.08-3.77a7.85,7.85,0,0,0-.72-3.49,5.09,5.09,0,0,0-2-2.23,6.14,6.14,0,0,0-3.06-.76,6,6,0,0,0-3.17.89,9.17,9.17,0,0,0-2.17,1.89,5.12,5.12,0,0,0-1.94-2.07,5.23,5.23,0,0,0-2.64-.71,5.59,5.59,0,0,0-2.63.67,7.91,7.91,0,0,0-2.4,2.16l-.11,0,.22-2.1-1-.61L261,108.56v1.63l2.32.51c.07.41.13.81.18,1.21s.08.8.11,1.2,0,.84,0,1.32l0,2.71c0,.58,0,1.13,0,1.65s-.05.95-.07,1.3a5.14,5.14,0,0,1-.07.67l-2.25.62.11,1.66h9.09l.11-1.66-2-.62a5.59,5.59,0,0,1-.17-1.37c0-.73-.05-1.49-.05-2.28v-5.32a3.77,3.77,0,0,1,1.34-1.14,3.44,3.44,0,0,1,1.63-.42,3,3,0,0,1,1.43.34,2.44,2.44,0,0,1,1,1.11,4.67,4.67,0,0,1,.38,2.06l0,3.4c0,.44,0,.9,0,1.38s0,.92-.06,1.3a6.25,6.25,0,0,1-.11.94l-1.84.62.11,1.66h8.61l.11-1.66-2-.62a6,6,0,0,1-.15-1.37q0-1.1,0-2.28l-.07-3.73a10.07,10.07,0,0,0-.16-1.81,3.74,3.74,0,0,1,1.22-1,4,4,0,0,1,1.69-.38,3.14,3.14,0,0,1,1.52.38,2.58,2.58,0,0,1,1.08,1.23,5.24,5.24,0,0,1,.4,2.23l.07,3.07c0,.41,0,.86,0,1.34s0,.92-.06,1.32a6.4,6.4,0,0,1-.11,1l-1.88.62.11,1.66h8.9l.11-1.66-2.24-.62A5.44,5.44,0,0,1,289.16,119.39Z"/><path d="M307.46,107.75a6.61,6.61,0,0,0-3.35-.89,5.27,5.27,0,0,0-2.79.82,6.82,6.82,0,0,0-2.1,1.9l-.1,0c0-1.9.08-3.5.1-4.78s.06-2.4.11-3.38l.15-2.95-1-.62-6.84,1.78.08,1.55,2.67.33c0,.27.05.65.06,1.16s0,1.11.05,1.83,0,1.53.06,2.46,0,2,0,3.06v4.38c0,.86,0,1.74,0,2.62s0,1.74,0,2.57,0,1.65-.09,2.44a19.27,19.27,0,0,0,3.28,1,16.35,16.35,0,0,0,3.38.34,10.64,10.64,0,0,0,5.23-1.23,8.81,8.81,0,0,0,3.42-3.29,8.93,8.93,0,0,0,1.2-4.56,7.76,7.76,0,0,0-1-4A6.9,6.9,0,0,0,307.46,107.75Zm-2.72,11.62a3.54,3.54,0,0,1-2.76,1.25,4.66,4.66,0,0,1-1.51-.26,4.4,4.4,0,0,1-1.28-.65v-8.18a3.82,3.82,0,0,1,1.27-.9,3.72,3.72,0,0,1,4.25.85,5.17,5.17,0,0,1,1.14,3.82A6.06,6.06,0,0,1,304.74,119.37Z"/><path d="M317.61,104a2.85,2.85,0,0,0,2.26-.89,3.07,3.07,0,0,0,0-4.09,2.85,2.85,0,0,0-2.26-.89,3,3,0,0,0-2.3.89,3,3,0,0,0,0,4.09A3,3,0,0,0,317.61,104Z"/><path d="M320,119.39q-.06-1.1-.06-2.28v-4.56c0-1,0-1.88.06-2.66s.09-1.57.16-2.34l-1-.61-6.66,1.62v1.63l2.43.51a17.84,17.84,0,0,1,.25,1.79c.05.57.07,1.21.07,1.94l0,2.71c0,.58,0,1.13,0,1.65s0,.95-.07,1.3a4.52,4.52,0,0,1-.08.67l-2.42.58.11,1.7h9.7l.11-1.7-2.39-.58A5.78,5.78,0,0,1,320,119.39Z"/><path d="M341.39,119.4c0-.71,0-1.47,0-2.29v-3.73a8.08,8.08,0,0,0-.7-3.53,5.19,5.19,0,0,0-1.94-2.23,5.25,5.25,0,0,0-2.78-.76,6.14,6.14,0,0,0-2.85.71,7.74,7.74,0,0,0-2.48,2.15l-.1,0,.21-2.14-1-.61-6.37,1.62v1.63l2.32.51c.12.63.2,1.21.25,1.76s.07,1.18.07,1.93l0,2.75c0,.61,0,1.17,0,1.69s0,.94-.07,1.28a4.31,4.31,0,0,1-.08.65l-2.24.62.11,1.66h9.27l.1-1.66-2.17-.62a6.28,6.28,0,0,1-.16-1.36c0-.71-.06-1.47-.06-2.29v-5.32a4.21,4.21,0,0,1,1.42-1.16,3.67,3.67,0,0,1,1.7-.4,2.86,2.86,0,0,1,1.5.4,2.82,2.82,0,0,1,1.09,1.25,5.18,5.18,0,0,1,.41,2.22v3c0,.44,0,.9,0,1.38s0,.92-.05,1.3a7.9,7.9,0,0,1-.11.94l-2.06.62.11,1.66h9.08l.11-1.66-2.24-.62A5.34,5.34,0,0,1,341.39,119.4Z"/><path d="M362.42,107.22l-5.06.62c-.13-.08-.26-.16-.4-.23a8,8,0,0,0-3.66-.82,8.85,8.85,0,0,0-3.82.8,6.66,6.66,0,0,0-2.66,2.17,5.58,5.58,0,0,0-.07,6.21,5.91,5.91,0,0,0,2.45,2,6.71,6.71,0,0,0-1.85,1.1,2.85,2.85,0,0,0-1.14,2.15,2.11,2.11,0,0,0,1,1.85,4.07,4.07,0,0,0,1.74.6,9.2,9.2,0,0,0-2.84,1.44,2.89,2.89,0,0,0-1.29,2.23,3.21,3.21,0,0,0,2.15,2.89,14,14,0,0,0,6,1,12.81,12.81,0,0,0,4.71-.81,8.22,8.22,0,0,0,3.26-2.19,4.6,4.6,0,0,0,1.19-3.08,3.88,3.88,0,0,0-1.3-3,7,7,0,0,0-4-1.41l-5.57-.54a1.7,1.7,0,0,1-.82-.29.79.79,0,0,1-.27-.65,1,1,0,0,1,.25-.6,2.23,2.23,0,0,1,.22-.21,10.53,10.53,0,0,0,2.54.3,8.89,8.89,0,0,0,3.78-.76,6.28,6.28,0,0,0,2.57-2.08,5.18,5.18,0,0,0,.92-3,5.45,5.45,0,0,0-.9-3.07l2.89.28ZM355,124.35a4.84,4.84,0,0,1,2.21.59,1.56,1.56,0,0,1,.65,1.36,2.5,2.5,0,0,1-1.29,2.12,5.88,5.88,0,0,1-3.27.85,5.66,5.66,0,0,1-3-.67,2.13,2.13,0,0,1-1.05-1.9,3.05,3.05,0,0,1,.51-1.67,4.74,4.74,0,0,1,1-1Zm.14-8.67a2,2,0,0,1-1.74,1,2.2,2.2,0,0,1-1.91-1.08,5,5,0,0,1-.73-2.86,5.19,5.19,0,0,1,.67-2.79,2.05,2.05,0,0,1,1.79-1,2.12,2.12,0,0,1,1.87,1.12,5.53,5.53,0,0,1,.7,3A4.86,4.86,0,0,1,355.18,115.68Z"/><path d="M41.44,125.13l0,0,.13-.2,0,0a2,2,0,0,0,.12-.19h0l.12-.21h0l.15-.3,0-.1.09-.21s0-.08,0-.11a2.09,2.09,0,0,0,.08-.23l0-.1a2.12,2.12,0,0,0,.09-.31c0-.05,0-.09,0-.15s0-.12,0-.18,0-.12,0-.18a.68.68,0,0,1,0-.15c0-.07,0-.14,0-.2s0-.07,0-.1a7.53,7.53,0,0,0,.08-.83s0,0,0,0A18,18,0,0,0,42,115.8h0c-.07-.24-.13-.47-.2-.7,0,0,0,0,0,0-.14-.45-.29-.89-.44-1.31a.08.08,0,0,0,0,0l-.21-.58,0-.1-.21-.53a.69.69,0,0,1,0-.1c-.08-.17-.15-.34-.21-.49a0,0,0,0,1,0,0c.06-.29.11-.58.16-.87a2.25,2.25,0,0,0,.71-.61h0l.2-.27s0,0,0,0a5.69,5.69,0,0,0,1-3.91h0a5.8,5.8,0,0,0-.16-.81,6.18,6.18,0,0,1,2.32-1.29,6.09,6.09,0,0,1,3-.1,1.23,1.23,0,0,0,.52-2.4,8.47,8.47,0,0,0-4.17.15,8.24,8.24,0,0,0-2.8,1.43c-.09-.1-.17-.2-.27-.3s0,0,0,0l-.19-.18-.07-.06-.25-.21h0l-.27-.2-.08-.05-.21-.14-.07,0a3.9,3.9,0,0,0-.35-.19,8.25,8.25,0,0,0,.72-3.06,8.45,8.45,0,0,0-.85-4.08,1.22,1.22,0,1,0-2.2,1.07,6,6,0,0,1-.1,5.46,7.5,7.5,0,0,0-.82,0h0A5.67,5.67,0,0,0,32.64,103a0,0,0,0,1,0,0l-.21.26h0a2.4,2.4,0,0,0-.43.84c-.27.11-.54.23-.8.36h0l-.53-.09-.11,0-.56-.08h-.11l-.61-.07h0l-1.38-.11h0l-.73,0h0a17.91,17.91,0,0,0-5.51.61h0l-.79.28-.09,0-.18.08-.14.06-.17.08-.17.09-.13.06-.28.16-.1.06a1.37,1.37,0,0,1-.2.13l-.09.07A1.33,1.33,0,0,0,19,106l-.09.06-.25.21h0a1.29,1.29,0,0,0-.17.16h0l-.16.17,0,0-.16.17,0,0-.15.19,0,0a1.43,1.43,0,0,0-.14.2s0,0,0,0-.09.14-.14.21a.05.05,0,0,1,0,0l-.12.23s0,0,0,0l-.12.25s0,0,0,0-.08.18-.11.27,0,0,0,0-.06.2-.1.3v0c0,.11-.06.22-.08.33h0c0,.12-.05.23-.06.35v0c0,.12,0,.24,0,.36v0c0,.11,0,.24,0,.36v0c0,.12,0,.25,0,.38a.11.11,0,0,1,0,.06q0,.18,0,.39v.07a3.06,3.06,0,0,0,.05.32h0c0,.13.05.25.08.37a.36.36,0,0,0,0,.1,3.18,3.18,0,0,0,.09.33.24.24,0,0,1,0,.08,1.55,1.55,0,0,0,.08.23l0,.13c0,.07.06.14.08.2l.09.19a.93.93,0,0,0,.05.1l.08.16h0a4.22,4.22,0,0,0,2,1.82h0l.13,0,.06,0a5.27,5.27,0,0,0,1.23.29,12.54,12.54,0,0,0-.5,2.67v0a.76.76,0,0,0,0,.21,19.28,19.28,0,0,0,.13,2.45l.06.28a30.83,30.83,0,0,0,1,4.1,1,1,0,0,0,.39.54,1,1,0,0,0,.62.25,31.48,31.48,0,0,0,4.2,0l.29,0a17.85,17.85,0,0,0,2.42-.45l.19-.07,0,0a12.22,12.22,0,0,0,2.47-1.12,5.23,5.23,0,0,0,.58,1.13s0,0,0,.05l.08.11h0a4.18,4.18,0,0,0,2.24,1.5h0l.17,0,.12,0,.2,0,.21,0h.14l.24,0h.91l.33,0h.07l.39-.06h.06l.37-.08,0,0c.12,0,.24-.06.36-.09h0a3.24,3.24,0,0,0,.33-.13h0a3.27,3.27,0,0,0,.33-.14h0l.31-.16h0l.27-.17h0l.25-.17,0,0,.22-.18,0,0a1.62,1.62,0,0,0,.19-.18s0,0,0,0l.18-.18,0,0,.16-.18,0,0A2.43,2.43,0,0,1,41.44,125.13Zm-2.79-21s0,0,0,0,.18.12.26.19h0l.25.21s0,0,0,0a3.22,3.22,0,0,1,1,1.91h0c0,.1,0,.2,0,.3h0A3.42,3.42,0,0,1,40,108h0c0,.09-.07.17-.11.26a.08.08,0,0,1,0,0c0,.07-.07.14-.11.22l0,.06-.15.22,0,0a5.73,5.73,0,0,1-3-1.46,5.67,5.67,0,0,1-2.13-2.58l0-.05.18-.19,0,0a1.54,1.54,0,0,1,.19-.17l0,0a1.84,1.84,0,0,1,.22-.17h0a3.46,3.46,0,0,1,1.14-.48h0a1.35,1.35,0,0,1,.29,0h0A3.29,3.29,0,0,1,38.65,104.08Zm-7.72,8.3c.61-.35,1.19-.7,1.74-1l.09-.06.42.33.42.33,0,.1c-.2.61-.39,1.26-.59,1.94Zm1.4,4.22c-.15.74-.28,1.48-.37,2.22l-5.49-4.3c.69-.27,1.39-.57,2.07-.89l1.9,1.48Zm-9.86-3.52h0a6.7,6.7,0,0,1-.76,0,3.25,3.25,0,0,1-1-.2,1.66,1.66,0,0,1-.73-.56,2.88,2.88,0,0,1-.51-1.34,3.21,3.21,0,0,1,.33-2.35,3,3,0,0,1,.5-.58,7.31,7.31,0,0,1,4-1.43,23.81,23.81,0,0,1,8,.65,4.54,4.54,0,0,1,1,.68c-.79.54-1.66,1.1-2.57,1.64C27.94,111.32,24.74,112.83,22.47,113.08Zm1.26,10.58a17.48,17.48,0,0,1-.58-2.55l1.6,1.25,1.59,1.25A17,17,0,0,1,23.73,123.66Zm7.73-1.7h0a12.52,12.52,0,0,1-2,1l-6.42-5a12.62,12.62,0,0,1,.49-2.15h0c0-.11.07-.22.11-.32l4.05,3.17h0l4,3.18Zm7.78,2a3.23,3.23,0,0,1-2.21.88,2.84,2.84,0,0,1-1.41-.18,1.57,1.57,0,0,1-.72-.58,2.92,2.92,0,0,1-.41-.87,6,6,0,0,1-.18-.83h0c-.3-2.27.41-5.74,1.38-8.88.31-1,.65-2,1-2.89a5,5,0,0,1,.9.81,23.85,23.85,0,0,1,2.55,7.66,7.36,7.36,0,0,1-.43,4.26A2.9,2.9,0,0,1,39.24,124Z"/></svg>